<svg width="16" height="16" viewBox="0 0 16 16" fill="none" xmlns="http://www.w3.org/2000/svg">
<g clip-path="url(#clip0)">
<path d="M8 0C7.74112 0 7.53125 0.209875 7.53125 0.468749V2.0625C7.53125 2.32137 7.74112 2.53125 8 2.53125C8.25887 2.53125 8.46875 2.32137 8.46875 2.0625V0.468749C8.46875 0.209875 8.25887 0 8 0Z" fill="white"/>
<path d="M8 3.36719C7.74112 3.36719 7.53125 3.57706 7.53125 3.83594V5.42968C7.53125 5.68856 7.74112 5.89843 8 5.89843C8.25887 5.89843 8.46875 5.68856 8.46875 5.42968V3.83594C8.46875 3.57706 8.25887 3.36719 8 3.36719Z" fill="white"/>
<path d="M8 6.73438C7.74112 6.73438 7.53125 6.94425 7.53125 7.20312V8.79687C7.53125 9.05575 7.74112 9.26562 8 9.26562C8.25887 9.26562 8.46875 9.05575 8.46875 8.79687V7.20312C8.46875 6.94425 8.25887 6.73438 8 6.73438Z" fill="white"/>
<path d="M8 10.1016C7.74112 10.1016 7.53125 10.3114 7.53125 10.5703V12.1641C7.53125 12.4229 7.74112 12.6328 8 12.6328C8.25887 12.6328 8.46875 12.4229 8.46875 12.1641V10.5703C8.46875 10.3114 8.25887 10.1016 8 10.1016Z" fill="white"/>
<path d="M8 13.4688C7.74112 13.4688 7.53125 13.6786 7.53125 13.9375V15.5312C7.53125 15.7901 7.74112 16 8 16C8.25887 16 8.46875 15.7901 8.46875 15.5312V13.9375C8.46875 13.6786 8.25887 13.4688 8 13.4688Z" fill="white"/>
<path d="M5.46327 7.64577L0.77578 3.58328C0.63703 3.46309 0.441062 3.43488 0.274062 3.51109C0.107094 3.58731 0 3.754 0 3.9375V12.0625C0 12.246 0.107094 12.4127 0.274062 12.4889C0.441374 12.5653 0.637374 12.5366 0.775749 12.4167L5.46324 8.35421C5.56596 8.26518 5.62499 8.13593 5.62499 7.99999C5.62499 7.86406 5.56596 7.73481 5.46327 7.64577ZM0.937498 11.0359V4.96406L4.44052 7.99999L0.937498 11.0359Z" fill="white"/>
<path d="M15.726 3.51107C15.559 3.43489 15.3629 3.4631 15.2242 3.58326L10.5367 7.64575C10.434 7.73478 10.375 7.86403 10.375 7.99997C10.375 8.13591 10.434 8.26516 10.5367 8.35419L15.2242 12.4167C15.363 12.5369 15.559 12.5651 15.726 12.4889C15.8929 12.4126 16 12.246 16 12.0625V3.93748C16 3.75398 15.8929 3.58729 15.726 3.51107ZM15.0625 11.0359L11.5595 7.99997L15.0625 4.96404V11.0359Z" fill="white"/>
</g>
<defs>
<clipPath id="clip0">
<rect width="16" height="16" fill="white"/>
</clipPath>
</defs>
</svg>
